True Blood S05E12 HDTV DivX-Atilla82

 
http://www.imdb.com/title/tt0844441/


In a world where vampires have "come out of the coffin", Sookie Stackhouse, a telepathic waitress, discovers a new world of different creatures when she meets Bill Compton, a vampire. 

language: English


General
Complete name : True.Blood.S05E12.HDTV.DivX-Atilla82.avi
Format : AVI
Format/Info : Audio Video Interleave
File size : 399 MiB
Duration : 55mn 11s
Overall bit rate : 1 012 Kbps
Writing application : VirtualDubMod 1.5.10.2 (build 2540/release)
Writing library : VirtualDubMod build 2540/release

Video
ID : 0
Format : MPEG-4 Visual
Format settings, BVOP : 1
Format settings, QPel : No
Format settings, GMC : No warppoints
Format settings, Matrix : Default (H.263)
Muxing mode : Packed bitstream
Codec ID : DX50
Codec ID/Hint : DivX 5
Duration : 55mn 11s
Bit rate : 875 Kbps
Width : 680 pixels
Height : 384 pixels
Display aspect ratio : 16:9
Frame rate : 23.976 fps
Color space : YUV
Chroma subsampling : 4:2:0
Bit depth : 8 bits
Scan type : Progressive
Compression mode : Lossy
Bits/(Pixel*Frame) : 0.140
Stream size : 345 MiB (86%)
Writing library : DivX 3330

Audio
ID : 1
Format : MPEG Audio
Format version : Version 1
Format profile : Layer 3
Codec ID : 55
Codec ID/Hint : MP3
Duration : 55mn 11s
Bit rate mode : Constant
Bit rate : 128 Kbps
Channel(s) : 2 channels
Sampling rate : 48.0 KHz
Compression mode : Lossy
Stream size : 50.5 MiB (13%)
Alignment : Aligned on interleaves
Interleave, duration : 42 ms (1.00 video frame)
Interleave, preload duration : 504 ms


SCREENSHOTS 
http://www.pohrani.com/f/3d/Vo/4WhNRDhw/screens.jpg




